<svg xmlns="http://www.w3.org/2000/svg" xmlns:xlink="http://www.w3.org/1999/xlink" width="2000" zoomAndPan="magnify" viewBox="0 0 1500 284.999983" height="380" preserveAspectRatio="xMidYMid meet" version="1.0"><defs><g/></defs><g fill="#0a2540" fill-opacity="1"><g transform="translate(17.221535, 265.876883)"><g><path d="M 262.359375 -242.921875 L 157.203125 0 L 101.6875 0 L -3.125 -242.921875 L 57.609375 -242.921875 L 131.53125 -69.40625 L 206.484375 -242.921875 Z M 262.359375 -242.921875 "/></g></g></g><g fill="#0a2540" fill-opacity="1"><g transform="translate(248.339292, 265.876883)"><g><path d="M 28.796875 -242.921875 L 139.15625 -242.921875 C 165.53125 -242.921875 188.835938 -237.890625 209.078125 -227.828125 C 229.328125 -217.765625 245.0625 -203.59375 256.28125 -185.3125 C 267.5 -167.039062 273.109375 -145.757812 273.109375 -121.46875 C 273.109375 -97.164062 267.5 -75.875 256.28125 -57.59375 C 245.0625 -39.320312 229.328125 -25.15625 209.078125 -15.09375 C 188.835938 -5.03125 165.53125 0 139.15625 0 L 28.796875 0 Z M 136.390625 -46.15625 C 160.679688 -46.15625 180.054688 -52.921875 194.515625 -66.453125 C 208.972656 -79.992188 216.203125 -98.332031 216.203125 -121.46875 C 216.203125 -144.601562 208.972656 -162.9375 194.515625 -176.46875 C 180.054688 -190 160.679688 -196.765625 136.390625 -196.765625 L 85.015625 -196.765625 L 85.015625 -46.15625 Z M 136.390625 -46.15625 "/></g></g></g><g fill="#0a2540" fill-opacity="1"><g transform="translate(512.432423, 265.876883)"><g><path d="M 145.0625 1.734375 C 121.226562 1.734375 99.769531 -3.582031 80.6875 -14.21875 C 61.601562 -24.863281 46.566406 -39.554688 35.578125 -58.296875 C 24.585938 -77.035156 19.09375 -98.09375 19.09375 -121.46875 C 19.09375 -144.832031 24.585938 -165.882812 35.578125 -184.625 C 46.566406 -203.363281 61.601562 -218.050781 80.6875 -228.6875 C 99.769531 -239.332031 121.226562 -244.65625 145.0625 -244.65625 C 162.644531 -244.65625 178.835938 -241.820312 193.640625 -236.15625 C 208.453125 -230.488281 221.0625 -222.101562 231.46875 -211 L 220.359375 -199.546875 C 200.929688 -218.742188 176.0625 -228.34375 145.75 -228.34375 C 125.394531 -228.34375 106.882812 -223.710938 90.21875 -214.453125 C 73.5625 -205.203125 60.488281 -192.421875 51 -176.109375 C 41.519531 -159.804688 36.78125 -141.59375 36.78125 -121.46875 C 36.78125 -101.332031 41.519531 -83.109375 51 -66.796875 C 60.488281 -50.492188 73.5625 -37.710938 90.21875 -28.453125 C 106.882812 -19.203125 125.394531 -14.578125 145.75 -14.578125 C 175.832031 -14.578125 200.703125 -24.289062 220.359375 -43.71875 L 231.46875 -32.28125 C 221.0625 -21.164062 208.394531 -12.71875 193.46875 -6.9375 C 178.550781 -1.15625 162.414062 1.734375 145.0625 1.734375 Z M 145.0625 1.734375 "/></g></g></g><g fill="#0a2540" fill-opacity="1"><g transform="translate(730.016311, 265.876883)"><g><path d="M 107.578125 1.390625 C 90.460938 1.390625 75.019531 -2.539062 61.25 -10.40625 C 47.488281 -18.269531 36.671875 -29.203125 28.796875 -43.203125 C 20.929688 -57.203125 17 -72.992188 17 -90.578125 C 17 -108.160156 20.929688 -123.945312 28.796875 -137.9375 C 36.671875 -151.9375 47.488281 -162.867188 61.25 -170.734375 C 75.019531 -178.597656 90.460938 -182.53125 107.578125 -182.53125 C 124.703125 -182.53125 140.144531 -178.597656 153.90625 -170.734375 C 167.675781 -162.867188 178.492188 -151.9375 186.359375 -137.9375 C 194.222656 -123.945312 198.15625 -108.160156 198.15625 -90.578125 C 198.15625 -72.992188 194.222656 -57.203125 186.359375 -43.203125 C 178.492188 -29.203125 167.675781 -18.269531 153.90625 -10.40625 C 140.144531 -2.539062 124.703125 1.390625 107.578125 1.390625 Z M 107.578125 -14.234375 C 121.460938 -14.234375 133.898438 -17.46875 144.890625 -23.9375 C 155.878906 -30.414062 164.550781 -39.4375 170.90625 -51 C 177.269531 -62.570312 180.453125 -75.765625 180.453125 -90.578125 C 180.453125 -105.378906 177.269531 -118.5625 170.90625 -130.125 C 164.550781 -141.695312 155.878906 -150.722656 144.890625 -157.203125 C 133.898438 -163.679688 121.460938 -166.921875 107.578125 -166.921875 C 93.703125 -166.921875 81.269531 -163.679688 70.28125 -157.203125 C 59.289062 -150.722656 50.613281 -141.695312 44.25 -130.125 C 37.882812 -118.5625 34.703125 -105.378906 34.703125 -90.578125 C 34.703125 -75.765625 37.882812 -62.570312 44.25 -51 C 50.613281 -39.4375 59.289062 -30.414062 70.28125 -23.9375 C 81.269531 -17.46875 93.703125 -14.234375 107.578125 -14.234375 Z M 107.578125 -14.234375 "/></g></g></g><g fill="#0a2540" fill-opacity="1"><g transform="translate(921.920344, 265.876883)"><g><path d="M 97.859375 -182.53125 C 120.304688 -182.53125 137.539062 -176.804688 149.5625 -165.359375 C 161.59375 -153.910156 167.609375 -137.082031 167.609375 -114.875 L 167.609375 0 L 150.953125 0 L 150.953125 -32.28125 C 145.171875 -21.632812 136.726562 -13.359375 125.625 -7.453125 C 114.519531 -1.554688 101.21875 1.390625 85.71875 1.390625 C 65.59375 1.390625 49.6875 -3.347656 38 -12.828125 C 26.3125 -22.316406 20.46875 -34.8125 20.46875 -50.3125 C 20.46875 -65.351562 25.847656 -77.554688 36.609375 -86.921875 C 47.367188 -96.296875 64.546875 -100.984375 88.140625 -100.984375 L 150.265625 -100.984375 L 150.265625 -115.5625 C 150.265625 -132.445312 145.691406 -145.285156 136.546875 -154.078125 C 127.410156 -162.867188 114.050781 -167.265625 96.46875 -167.265625 C 84.4375 -167.265625 72.925781 -165.179688 61.9375 -161.015625 C 50.957031 -156.859375 41.648438 -151.304688 34.015625 -144.359375 L 25.328125 -156.859375 C 34.359375 -164.953125 45.234375 -171.253906 57.953125 -175.765625 C 70.679688 -180.273438 83.984375 -182.53125 97.859375 -182.53125 Z M 88.140625 -12.84375 C 103.179688 -12.84375 115.960938 -16.3125 126.484375 -23.25 C 137.015625 -30.1875 144.941406 -40.25 150.265625 -53.4375 L 150.265625 -87.453125 L 88.5 -87.453125 C 70.675781 -87.453125 57.773438 -84.210938 49.796875 -77.734375 C 41.816406 -71.253906 37.828125 -62.347656 37.828125 -51.015625 C 37.828125 -39.210938 42.222656 -29.898438 51.015625 -23.078125 C 59.804688 -16.253906 72.179688 -12.84375 88.140625 -12.84375 Z M 88.140625 -12.84375 "/></g></g></g><g fill="#0a2540" fill-opacity="1"><g transform="translate(1102.025565, 265.876883)"><g><path d="M 108.625 1.390625 C 91.039062 1.390625 75.304688 -2.539062 61.421875 -10.40625 C 47.546875 -18.269531 36.671875 -29.203125 28.796875 -43.203125 C 20.929688 -57.203125 17 -72.992188 17 -90.578125 C 17 -108.390625 20.929688 -124.289062 28.796875 -138.28125 C 36.671875 -152.28125 47.546875 -163.15625 61.421875 -170.90625 C 75.304688 -178.65625 91.039062 -182.53125 108.625 -182.53125 C 123.195312 -182.53125 136.441406 -179.695312 148.359375 -174.03125 C 160.273438 -168.363281 169.929688 -160.09375 177.328125 -149.21875 L 164.5 -139.859375 C 158.019531 -148.878906 149.976562 -155.644531 140.375 -160.15625 C 130.769531 -164.664062 120.1875 -166.921875 108.625 -166.921875 C 94.507812 -166.921875 81.84375 -163.738281 70.625 -157.375 C 59.40625 -151.007812 50.613281 -142.039062 44.25 -130.46875 C 37.882812 -118.90625 34.703125 -105.609375 34.703125 -90.578125 C 34.703125 -75.535156 37.882812 -62.226562 44.25 -50.65625 C 50.613281 -39.09375 59.40625 -30.128906 70.625 -23.765625 C 81.84375 -17.410156 94.507812 -14.234375 108.625 -14.234375 C 120.1875 -14.234375 130.769531 -16.488281 140.375 -21 C 149.976562 -25.507812 158.019531 -32.273438 164.5 -41.296875 L 177.328125 -31.921875 C 169.929688 -21.046875 160.273438 -12.773438 148.359375 -7.109375 C 136.441406 -1.441406 123.195312 1.390625 108.625 1.390625 Z M 108.625 1.390625 "/></g></g></g><g fill="#0a2540" fill-opacity="1"><g transform="translate(1268.943898, 265.876883)"><g><path d="M 125.28125 -182.53125 C 147.945312 -182.53125 165.875 -175.9375 179.0625 -162.75 C 192.25 -149.570312 198.84375 -130.601562 198.84375 -105.84375 L 198.84375 0 L 181.5 0 L 181.5 -104.453125 C 181.5 -124.816406 176.347656 -140.316406 166.046875 -150.953125 C 155.753906 -161.597656 141.351562 -166.921875 122.84375 -166.921875 C 101.5625 -166.921875 84.789062 -160.554688 72.53125 -147.828125 C 60.269531 -135.109375 54.140625 -117.988281 54.140625 -96.46875 L 54.140625 0 L 36.78125 0 L 36.78125 -257.5 L 54.140625 -257.5 L 54.140625 -143.328125 C 60.378906 -155.816406 69.628906 -165.472656 81.890625 -172.296875 C 94.160156 -179.117188 108.625 -182.53125 125.28125 -182.53125 Z M 125.28125 -182.53125 "/></g></g></g></svg>